<svg width="20" height="20" viewBox="0 0 20 20" fill="none" xmlns="http://www.w3.org/2000/svg">
<path fill-rule="evenodd" clip-rule="evenodd" d="M-0.00371552 1C-0.00371552 1.55 0.446284 2 0.996284 2H1.99628L5.59628 9.59L4.24628 12.03C3.51628 13.37 4.47628 15 5.99628 15H16.9963C17.5463 15 17.9963 14.55 17.9963 14C17.9963 13.45 17.5463 13 16.9963 13H5.99628L7.09628 11H14.5463C15.2963 11 15.9563 10.59 16.2963 9.97L19.8763 3.48C20.2463 2.82 19.7663 2 19.0063 2H4.20628L3.53628 0.57C3.37628 0.22 3.01628 0 2.63628 0H0.996284C0.446284 0 -0.00371552 0.45 -0.00371552 1ZM5.99628 16C4.89628 16 4.00628 16.9 4.00628 18C4.00628 19.1 4.89628 20 5.99628 20C7.09628 20 7.99628 19.1 7.99628 18C7.99628 16.9 7.09628 16 5.99628 16ZM14.0063 18C14.0063 16.9 14.8963 16 15.9963 16C17.0963 16 17.9963 16.9 17.9963 18C17.9963 19.1 17.0963 20 15.9963 20C14.8963 20 14.0063 19.1 14.0063 18Z" fill="white"/>
</svg>
