<svg width="80" height="80" viewBox="0 0 80 80" fill="none" xmlns="http://www.w3.org/2000/svg">
<path fill-rule="evenodd" clip-rule="evenodd" d="M0 40C0 17.92 17.92 0 40 0C62.08 0 80 17.92 80 40C80 62.08 62.08 80 40 80C17.92 80 0 62.08 0 40ZM45.64 66.68V64.36C52.6 63.04 58.08 59.04 58.16 51.72C58.16 41.64 49.52 38.16 41.44 36.08C33.36 34 30.76 31.8 30.76 28.44C30.76 24.6 34.36 21.88 40.36 21.88C45.4 21.88 47.92 23.84 48.84 26.88C49.24 28.32 50.44 29.36 51.92 29.36H52.96C55.32 29.36 57 27.04 56.2 24.84C54.68 20.6 51.2 17.16 45.68 15.8V13.32C45.68 10.4 43.28 8 40.36 8H40.32C37.4 8 35 10.4 35 13.32V15.72C28.12 17.2 22.56 21.68 22.56 28.56C22.56 36.76 29.36 40.84 39.28 43.24C48.2 45.36 49.96 48.48 49.96 51.8C49.96 54.24 48.2 58.16 40.36 58.16C34.52 58.16 31.48 56.08 30.32 53.08C29.76 51.68 28.56 50.68 27.08 50.68H26.12C23.72 50.68 22 53.12 22.92 55.32C24.92 60.24 29.64 63.16 34.96 64.28V66.68C34.96 69.6 37.36 72 40.28 72H40.32C43.24 72 45.64 69.6 45.64 66.68Z" fill="#00E696"/>
</svg>
